<svg xmlns="http://www.w3.org/2000/svg" viewBox="0 0 1200 620" role="img" aria-labelledby="title desc">
  <title id="title">Synology volume mapping wireframe</title>
  <desc id="desc">A generic Synology-style container wizard maps a dedicated NAS folder to the fixed container path /data with read-only disabled.</desc>
  <defs>
    <filter id="shadow" x="-10%" y="-10%" width="120%" height="130%">
      <feDropShadow dx="0" dy="12" stdDeviation="18" flood-color="#18314f" flood-opacity=".16"/>
    </filter>
    <style>
      .ui { font-family: Inter, -apple-system, BlinkMacSystemFont, "Segoe UI", sans-serif; }
      .value { fill: #24364b; font-size: 24px; font-weight: 650; }
      .small { fill: #5d6f85; font-size: 18px; font-weight: 600; }
      .callout { fill: #137be6; }
      .callout-text { fill: white; font-size: 20px; font-weight: 750; text-anchor: middle; dominant-baseline: central; }
    </style>
  </defs>
  <rect width="1200" height="620" rx="30" fill="#f2f6fb"/>
  <g class="ui" filter="url(#shadow)">
    <rect x="70" y="48" width="1060" height="524" rx="18" fill="white"/>
    <path d="M70 66a18 18 0 0 1 18-18h1024a18 18 0 0 1 18 18v94H70z" fill="#147de1"/>
    <circle cx="1084" cy="84" r="5" fill="#d6eaff"/>
    <circle cx="1104" cy="84" r="5" fill="#d6eaff"/>
    <rect x="108" y="88" width="248" height="16" rx="8" fill="#d6eaff" opacity=".9"/>
    <rect x="108" y="116" width="164" height="10" rx="5" fill="#b8dcff" opacity=".75"/>
    <rect x="108" y="196" width="984" height="54" rx="10" fill="#edf3f9"/>
    <rect x="132" y="215" width="174" height="16" rx="8" fill="#aebdcd"/>
    <rect x="486" y="215" width="172" height="16" rx="8" fill="#aebdcd"/>
    <rect x="858" y="215" width="118" height="16" rx="8" fill="#aebdcd"/>
    <rect x="108" y="266" width="984" height="108" rx="12" fill="#f9fbfd" stroke="#d8e2ed" stroke-width="2"/>
    <g transform="translate(138 289)">
      <path d="M0 7a7 7 0 0 1 7-7h29l11 12h45a7 7 0 0 1 7 7v45a7 7 0 0 1-7 7H7a7 7 0 0 1-7-7z" fill="#d9e8f7"/>
      <path d="M0 27h99v37a7 7 0 0 1-7 7H7a7 7 0 0 1-7-7z" fill="#8cbce8"/>
    </g>
    <text x="262" y="329" class="value">/docker/hanji</text>
    <path d="M489 320h112" stroke="#137be6" stroke-width="4" stroke-linecap="round"/>
    <path d="m589 309 14 11-14 11" fill="none" stroke="#137be6" stroke-width="4" stroke-linecap="round" stroke-linejoin="round"/>
    <rect x="636" y="287" width="184" height="64" rx="10" fill="white" stroke="#137be6" stroke-width="3"/>
    <text x="668" y="328" class="value">/data</text>
    <rect x="918" y="297" width="42" height="42" rx="8" fill="white" stroke="#a9b7c7" stroke-width="3"/>
    <text x="976" y="326" class="small">R/W</text>
    <rect x="108" y="414" width="274" height="66" rx="12" fill="#eaf3fc"/>
    <circle cx="146" cy="447" r="17" fill="#137be6"/>
    <path d="m137 447 7 7 13-15" fill="none" stroke="white" stroke-width="4" stroke-linecap="round" stroke-linejoin="round"/>
    <rect x="178" y="437" width="164" height="18" rx="9" fill="#8ba2b9"/>
    <rect x="862" y="500" width="230" height="48" rx="24" fill="#147de1"/>
    <path d="M925 524h90" stroke="#d7ebff" stroke-width="10" stroke-linecap="round"/>
    <circle cx="239" cy="276" r="22" class="callout"/>
    <text x="239" y="276" class="callout-text">1</text>
    <circle cx="812" cy="278" r="22" class="callout"/>
    <text x="812" y="278" class="callout-text">2</text>
    <circle cx="936" cy="382" r="22" class="callout"/>
    <text x="936" y="382" class="callout-text">3</text>
  </g>
</svg>
