<svg xmlns="http://www.w3.org/2000/svg" viewBox="0 0 512 512">
  <!-- 컨셉 E v2: 조각보 — 조각이 모서리까지 채우고 솔기는 선으로.
       삐뚤한 솔기 + 상침 스티치로 몬드리안이 아닌 손바느질 보자기로 읽히게. -->
  <defs>
    <clipPath id="roundE"><rect width="512" height="512" rx="116"/></clipPath>
    <filter id="fiberE" x="-5%" y="-5%" width="110%" height="110%">
      <feTurbulence type="fractalNoise" baseFrequency="0.02 0.3" numOctaves="2" seed="9"/>
      <feColorMatrix type="matrix" values="0 0 0 0 0.2  0 0 0 0 0.16  0 0 0 0 0.1  0 0 0 0.8 0"/>
      <feComposite operator="in" in2="SourceGraphic"/>
    </filter>
  </defs>

  <g clip-path="url(#roundE)">
    <!-- 조각 (모서리까지 풀블리드, 솔기 중심선에서 맞닿음) -->
    <polygon points="0,0 222,0 213,195 0,186" fill="#6E7E94"/>
    <polygon points="222,0 512,0 512,150 216,132" fill="#F2EAD6"/>
    <polygon points="216,132 512,150 512,312 208,301" fill="#CFA968"/>
    <polygon points="0,186 213,195 208,301 0,296" fill="#AC4030"/>
    <polygon points="0,296 158,304 172,512 0,512" fill="#F2EAD6"/>
    <polygon points="158,304 346,306 334,512 172,512" fill="#BE8E7F"/>
    <polygon points="346,306 512,312 512,512 334,512" fill="#93A183"/>

    <!-- 솔기 -->
    <g fill="none" stroke="#4A3E2E" stroke-width="13" stroke-linecap="round">
      <path d="M222 0 L208 301"/>
      <path d="M0 186 L213 195"/>
      <path d="M216 132 L512 150"/>
      <path d="M0 296 L208 301 L346 306 L512 312"/>
      <path d="M158 304 L172 512"/>
      <path d="M346 306 L334 512"/>
    </g>

    <!-- 상침 스티치 -->
    <g fill="none" stroke="#E9DCBB" stroke-width="2.4" stroke-dasharray="9 13" opacity="0.6">
      <path d="M222 0 L208 301"/>
      <path d="M0 186 L213 195"/>
      <path d="M216 132 L512 150"/>
      <path d="M0 296 L208 301 L346 306 L512 312"/>
      <path d="M158 304 L172 512"/>
      <path d="M346 306 L334 512"/>
    </g>
    <!-- 가장자리 감침질 -->
    <rect x="9" y="9" width="494" height="494" rx="108" fill="none"
          stroke="#E9DCBB" stroke-width="2.4" stroke-dasharray="9 13" opacity="0.5"/>

    <!-- 옷감 결 -->
    <rect width="512" height="512" filter="url(#fiberE)" opacity="0.08"/>
  </g>
</svg>
